<mxfile host="app.diagrams.net" modified="2021-05-16T15:07:47.007Z" agent="5.0 (Windows NT 10.0; Win64; x64) AppleWebKit/537.36 (KHTML, like Gecko) Chrome/90.0.4430.212 Safari/537.36" etag="x3HHbIOPPo_AyusroEb8" version="14.6.13" type="github">
  <diagram id="prtHgNgQTEPvFCAcTncT" name="Page-1">
    <mxGraphModel dx="1422" dy="800" grid="1" gridSize="10" guides="1" tooltips="1" connect="1" arrows="1" fold="1" page="1" pageScale="1" pageWidth="1169" pageHeight="827" math="0" shadow="0">
      <root>
        <mxCell id="0" />
        <mxCell id="1" parent="0" />
        <mxCell id="iG1FyST4VSw2gSxUDnyD-28" value="" style="rounded=0;whiteSpace=wrap;html=1;dashed=1;dashPattern=1 4;fillColor=#eeeeee;strokeColor=#36393d;" parent="1" vertex="1">
          <mxGeometry x="20" y="280" width="1140" height="520" as="geometry" />
        </mxCell>
        <mxCell id="9lxMoNS6_Zflg6dV7JQC-2" value="" style="edgeStyle=orthogonalEdgeStyle;rounded=0;orthogonalLoop=1;jettySize=auto;html=1;exitX=0.594;exitY=0.949;exitDx=0;exitDy=0;exitPerimeter=0;entryX=0.519;entryY=-0.009;entryDx=0;entryDy=0;entryPerimeter=0;curved=1;" edge="1" parent="1" source="mG7DTUGrjtM77zd7hEEh-1" target="9lxMoNS6_Zflg6dV7JQC-1">
          <mxGeometry relative="1" as="geometry">
            <Array as="points">
              <mxPoint x="493" y="190" />
              <mxPoint x="439" y="190" />
            </Array>
          </mxGeometry>
        </mxCell>
        <mxCell id="mG7DTUGrjtM77zd7hEEh-1" value="Broker&lt;br&gt;Topic: pisid_g07_&lt;b&gt;simulators&lt;/b&gt;" style="ellipse;shape=cloud;whiteSpace=wrap;html=1;dashed=1;fillColor=#f5f5f5;strokeColor=#666666;fontColor=#333333;" parent="1" vertex="1">
          <mxGeometry x="291.8222033898305" y="10" width="338.54237288135596" height="176.04166666666669" as="geometry" />
        </mxCell>
        <mxCell id="mG7DTUGrjtM77zd7hEEh-2" value="SimulateSensor.jar" style="shape=cube;whiteSpace=wrap;html=1;boundedLbl=1;backgroundOutline=1;darkOpacity=0.05;darkOpacity2=0.1;dashed=1;size=10;" parent="1" vertex="1">
          <mxGeometry x="31.82" y="50.001666666666665" width="162.50033898305085" height="40.625" as="geometry" />
        </mxCell>
        <mxCell id="mG7DTUGrjtM77zd7hEEh-6" value="" style="rounded=0;orthogonalLoop=1;jettySize=auto;html=1;exitX=0;exitY=0;exitDx=162.50033898305085;exitDy=25.3125;exitPerimeter=0;entryX=0.088;entryY=0.335;entryDx=0;entryDy=0;entryPerimeter=0;" parent="1" source="mG7DTUGrjtM77zd7hEEh-2" target="mG7DTUGrjtM77zd7hEEh-1" edge="1">
          <mxGeometry x="31.82" y="36.46" as="geometry" />
        </mxCell>
        <mxCell id="mG7DTUGrjtM77zd7hEEh-9" value="" style="edgeStyle=none;rounded=0;orthogonalLoop=1;jettySize=auto;html=1;exitX=0;exitY=0;exitDx=162.50033898305085;exitDy=25.3125;exitPerimeter=0;entryX=0.126;entryY=0.545;entryDx=0;entryDy=0;entryPerimeter=0;" parent="1" source="mG7DTUGrjtM77zd7hEEh-4" target="mG7DTUGrjtM77zd7hEEh-1" edge="1">
          <mxGeometry x="31.82" y="36.46" as="geometry" />
        </mxCell>
        <mxCell id="mG7DTUGrjtM77zd7hEEh-4" value="SimulateSensor.jar" style="shape=cube;whiteSpace=wrap;html=1;boundedLbl=1;backgroundOutline=1;darkOpacity=0.05;darkOpacity2=0.1;dashed=1;size=10;" parent="1" vertex="1">
          <mxGeometry x="31.82" y="131.25166666666667" width="162.50033898305085" height="40.625" as="geometry" />
        </mxCell>
        <mxCell id="mG7DTUGrjtM77zd7hEEh-10" value="" style="edgeStyle=none;rounded=0;orthogonalLoop=1;jettySize=auto;html=1;exitX=0;exitY=0;exitDx=162.50033898305085;exitDy=25.3125;exitPerimeter=0;entryX=0.108;entryY=0.727;entryDx=0;entryDy=0;entryPerimeter=0;" parent="1" source="mG7DTUGrjtM77zd7hEEh-5" target="mG7DTUGrjtM77zd7hEEh-1" edge="1">
          <mxGeometry x="31.82" y="36.46" as="geometry" />
        </mxCell>
        <mxCell id="mG7DTUGrjtM77zd7hEEh-5" value="SimulateSensor.jar" style="shape=cube;whiteSpace=wrap;html=1;boundedLbl=1;backgroundOutline=1;darkOpacity=0.05;darkOpacity2=0.1;dashed=1;size=10;" parent="1" vertex="1">
          <mxGeometry x="31.82" y="171.8766666666667" width="162.50033898305085" height="40.625" as="geometry" />
        </mxCell>
        <mxCell id="mG7DTUGrjtM77zd7hEEh-3" value="SimulateSensor.jar" style="shape=cube;whiteSpace=wrap;html=1;boundedLbl=1;backgroundOutline=1;darkOpacity=0.05;darkOpacity2=0.1;dashed=1;size=10;" parent="1" vertex="1">
          <mxGeometry x="31.82" y="90.62666666666667" width="162.50033898305085" height="40.625" as="geometry" />
        </mxCell>
        <mxCell id="mG7DTUGrjtM77zd7hEEh-8" value="" style="edgeStyle=none;rounded=0;orthogonalLoop=1;jettySize=auto;html=1;entryX=0.061;entryY=0.454;entryDx=0;entryDy=0;entryPerimeter=0;exitX=0;exitY=0;exitDx=162.50033898305085;exitDy=25.3125;exitPerimeter=0;" parent="1" source="mG7DTUGrjtM77zd7hEEh-3" target="mG7DTUGrjtM77zd7hEEh-1" edge="1">
          <mxGeometry x="31.82" y="36.46" as="geometry">
            <mxPoint x="221.82" y="124.46000000000001" as="sourcePoint" />
          </mxGeometry>
        </mxCell>
        <mxCell id="mG7DTUGrjtM77zd7hEEh-41" value="" style="group" parent="1" vertex="1" connectable="0">
          <mxGeometry x="40" y="370.01" width="210" height="365.63" as="geometry" />
        </mxCell>
        <mxCell id="mG7DTUGrjtM77zd7hEEh-11" value="MongoDB Cloud&lt;br&gt;(Atlas temporariamente)" style="shape=cylinder3;whiteSpace=wrap;html=1;boundedLbl=1;backgroundOutline=1;size=15;fillColor=#dae8fc;strokeColor=#6c8ebf;" parent="mG7DTUGrjtM77zd7hEEh-41" vertex="1">
          <mxGeometry y="-65.01088902564103" width="210" height="108.33481481481482" as="geometry" />
        </mxCell>
        <mxCell id="mG7DTUGrjtM77zd7hEEh-24" value="MongoDB Local" style="shape=cylinder3;whiteSpace=wrap;html=1;boundedLbl=1;backgroundOutline=1;size=15;fillColor=#dae8fc;strokeColor=#6c8ebf;" parent="mG7DTUGrjtM77zd7hEEh-41" vertex="1">
          <mxGeometry y="257.29518518518523" width="210" height="108.33481481481482" as="geometry" />
        </mxCell>
        <mxCell id="mG7DTUGrjtM77zd7hEEh-32" value="" style="edgeStyle=orthogonalEdgeStyle;curved=1;rounded=0;orthogonalLoop=1;jettySize=auto;html=1;" parent="mG7DTUGrjtM77zd7hEEh-41" source="mG7DTUGrjtM77zd7hEEh-27" edge="1">
          <mxGeometry relative="1" as="geometry">
            <mxPoint x="105" y="255.941" as="targetPoint" />
          </mxGeometry>
        </mxCell>
        <mxCell id="mG7DTUGrjtM77zd7hEEh-27" value="grp02.ConnectionMongoReplics&lt;br&gt;grp07.CloudToCluster" style="shape=cube;whiteSpace=wrap;html=1;boundedLbl=1;backgroundOutline=1;darkOpacity=0.05;darkOpacity2=0.1;size=10;fillColor=#f0a30a;strokeColor=#BD7000;fontColor=#000000;" parent="mG7DTUGrjtM77zd7hEEh-41" vertex="1">
          <mxGeometry y="119.9916408888889" width="210" height="57.55287037037037" as="geometry" />
        </mxCell>
        <mxCell id="mG7DTUGrjtM77zd7hEEh-33" value="" style="edgeStyle=orthogonalEdgeStyle;curved=1;rounded=0;orthogonalLoop=1;jettySize=auto;html=1;" parent="mG7DTUGrjtM77zd7hEEh-41" source="mG7DTUGrjtM77zd7hEEh-11" target="mG7DTUGrjtM77zd7hEEh-27" edge="1">
          <mxGeometry relative="1" as="geometry">
            <mxPoint x="221.05263157894737" y="162.50222222222223" as="targetPoint" />
          </mxGeometry>
        </mxCell>
        <mxCell id="iG1FyST4VSw2gSxUDnyD-13" style="edgeStyle=orthogonalEdgeStyle;rounded=0;orthogonalLoop=1;jettySize=auto;html=1;entryX=-0.009;entryY=0.56;entryDx=0;entryDy=0;entryPerimeter=0;" parent="1" source="iG1FyST4VSw2gSxUDnyD-7" target="iG1FyST4VSw2gSxUDnyD-21" edge="1">
          <mxGeometry relative="1" as="geometry">
            <mxPoint x="939.9999999999995" y="700.0588235294119" as="targetPoint" />
            <Array as="points">
              <mxPoint x="670" y="739" />
              <mxPoint x="670" y="676" />
            </Array>
          </mxGeometry>
        </mxCell>
        <mxCell id="iG1FyST4VSw2gSxUDnyD-7" value="grp07.ClusterToMySql(&quot;0&quot;)&lt;br&gt;(Migração direta)" style="shape=cube;whiteSpace=wrap;html=1;boundedLbl=1;backgroundOutline=1;darkOpacity=0.05;darkOpacity2=0.1;size=10;fillColor=#f0a30a;strokeColor=#BD7000;fontColor=#000000;" parent="1" vertex="1">
          <mxGeometry x="420" y="710" width="180" height="57.55" as="geometry" />
        </mxCell>
        <mxCell id="iG1FyST4VSw2gSxUDnyD-16" style="edgeStyle=orthogonalEdgeStyle;rounded=0;orthogonalLoop=1;jettySize=auto;html=1;endArrow=classic;endFill=1;exitX=0.91;exitY=0.4;exitDx=0;exitDy=0;exitPerimeter=0;entryX=0.005;entryY=0.273;entryDx=0;entryDy=0;entryPerimeter=0;" parent="1" source="iG1FyST4VSw2gSxUDnyD-8" target="iG1FyST4VSw2gSxUDnyD-21" edge="1">
          <mxGeometry relative="1" as="geometry">
            <mxPoint x="730" y="689" as="targetPoint" />
            <Array as="points">
              <mxPoint x="670" y="358" />
              <mxPoint x="670" y="637" />
            </Array>
          </mxGeometry>
        </mxCell>
        <mxCell id="iG1FyST4VSw2gSxUDnyD-8" value="Broker&lt;br&gt;Topic: pisid_g07_&lt;b&gt;sensors&lt;/b&gt;" style="ellipse;shape=cloud;whiteSpace=wrap;html=1;dashed=1;fillColor=#f5f5f5;strokeColor=#666666;fontColor=#333333;" parent="1" vertex="1">
          <mxGeometry x="390.36" y="300" width="240" height="145" as="geometry" />
        </mxCell>
        <mxCell id="iG1FyST4VSw2gSxUDnyD-15" style="edgeStyle=orthogonalEdgeStyle;rounded=0;orthogonalLoop=1;jettySize=auto;html=1;dashed=1;endArrow=none;endFill=0;" parent="1" source="iG1FyST4VSw2gSxUDnyD-9" edge="1">
          <mxGeometry relative="1" as="geometry">
            <mxPoint x="350" y="564" as="targetPoint" />
          </mxGeometry>
        </mxCell>
        <mxCell id="iG1FyST4VSw2gSxUDnyD-19" style="edgeStyle=orthogonalEdgeStyle;rounded=0;orthogonalLoop=1;jettySize=auto;html=1;endArrow=none;endFill=0;dashed=1;" parent="1" source="iG1FyST4VSw2gSxUDnyD-9" edge="1">
          <mxGeometry relative="1" as="geometry">
            <mxPoint x="670" y="564" as="targetPoint" />
          </mxGeometry>
        </mxCell>
        <mxCell id="iG1FyST4VSw2gSxUDnyD-9" value="grp07.ClusterToMySql(&quot;1&quot;) &lt;br&gt;(Migração MQTT)" style="shape=cube;whiteSpace=wrap;html=1;boundedLbl=1;backgroundOutline=1;darkOpacity=0.05;darkOpacity2=0.1;size=10;fillColor=#f0a30a;strokeColor=#BD7000;fontColor=#000000;" parent="1" vertex="1">
          <mxGeometry x="420" y="452.45" width="180.73" height="57.55" as="geometry" />
        </mxCell>
        <mxCell id="iG1FyST4VSw2gSxUDnyD-12" style="edgeStyle=orthogonalEdgeStyle;rounded=0;orthogonalLoop=1;jettySize=auto;html=1;entryX=0;entryY=0;entryDx=0;entryDy=23.775;entryPerimeter=0;exitX=1;exitY=0;exitDx=0;exitDy=73.75;exitPerimeter=0;" parent="1" source="mG7DTUGrjtM77zd7hEEh-24" target="iG1FyST4VSw2gSxUDnyD-7" edge="1">
          <mxGeometry relative="1" as="geometry">
            <Array as="points">
              <mxPoint x="350" y="701" />
              <mxPoint x="350" y="734" />
            </Array>
          </mxGeometry>
        </mxCell>
        <mxCell id="iG1FyST4VSw2gSxUDnyD-14" style="edgeStyle=orthogonalEdgeStyle;rounded=0;orthogonalLoop=1;jettySize=auto;html=1;entryX=0.07;entryY=0.4;entryDx=0;entryDy=0;entryPerimeter=0;exitX=1.011;exitY=0.385;exitDx=0;exitDy=0;exitPerimeter=0;" parent="1" source="mG7DTUGrjtM77zd7hEEh-24" target="iG1FyST4VSw2gSxUDnyD-8" edge="1">
          <mxGeometry relative="1" as="geometry">
            <Array as="points">
              <mxPoint x="350" y="669" />
              <mxPoint x="350" y="358" />
            </Array>
          </mxGeometry>
        </mxCell>
        <mxCell id="mG7DTUGrjtM77zd7hEEh-37" value="MySQL (Cloud)" style="shape=cylinder3;whiteSpace=wrap;html=1;boundedLbl=1;backgroundOutline=1;size=15;fillColor=#60a917;strokeColor=#2D7600;fontColor=#ffffff;" parent="1" vertex="1">
          <mxGeometry x="999.9964406779663" y="304.99999999999994" width="108.3335593220339" height="108.33333333333334" as="geometry" />
        </mxCell>
        <mxCell id="mG7DTUGrjtM77zd7hEEh-38" value="MySQL (Local)" style="shape=cylinder3;whiteSpace=wrap;html=1;boundedLbl=1;backgroundOutline=1;size=15;fillColor=#60a917;strokeColor=#2D7600;fontColor=#ffffff;" parent="1" vertex="1">
          <mxGeometry x="1000" y="478.34000000000003" width="108.33" height="110" as="geometry" />
        </mxCell>
        <mxCell id="iG1FyST4VSw2gSxUDnyD-25" style="edgeStyle=orthogonalEdgeStyle;rounded=0;orthogonalLoop=1;jettySize=auto;html=1;entryX=0.5;entryY=1;entryDx=0;entryDy=0;entryPerimeter=0;endArrow=classic;endFill=1;" parent="1" source="iG1FyST4VSw2gSxUDnyD-21" target="mG7DTUGrjtM77zd7hEEh-38" edge="1">
          <mxGeometry relative="1" as="geometry">
            <Array as="points">
              <mxPoint x="1054" y="668" />
            </Array>
          </mxGeometry>
        </mxCell>
        <mxCell id="iG1FyST4VSw2gSxUDnyD-21" value="&lt;br&gt;&lt;br&gt;&lt;br&gt;grp07.MongoToMySql&lt;br&gt;grp07.SqlPublisher&lt;br&gt;(Análise medições)" style="shape=cube;whiteSpace=wrap;html=1;boundedLbl=1;backgroundOutline=1;darkOpacity=0.05;darkOpacity2=0.1;size=10;fillColor=#ffe6cc;strokeColor=#d79b00;" parent="1" vertex="1">
          <mxGeometry x="720" y="600" width="210.73" height="135.63" as="geometry" />
        </mxCell>
        <mxCell id="iG1FyST4VSw2gSxUDnyD-29" value="MySqlData" style="shape=cube;whiteSpace=wrap;html=1;boundedLbl=1;backgroundOutline=1;darkOpacity=0.05;darkOpacity2=0.1;size=10;fillColor=#ffe6cc;strokeColor=#d79b00;" parent="1" vertex="1">
          <mxGeometry x="780.36" y="625" width="90" height="40" as="geometry" />
        </mxCell>
        <mxCell id="iG1FyST4VSw2gSxUDnyD-22" value="" style="edgeStyle=orthogonalEdgeStyle;rounded=0;orthogonalLoop=1;jettySize=auto;html=1;dashed=1;endArrow=classic;endFill=1;exitX=0;exitY=0.5;exitDx=0;exitDy=0;exitPerimeter=0;entryX=0;entryY=0;entryDx=40;entryDy=0;entryPerimeter=0;" parent="1" source="mG7DTUGrjtM77zd7hEEh-37" target="iG1FyST4VSw2gSxUDnyD-29" edge="1">
          <mxGeometry relative="1" as="geometry">
            <Array as="points">
              <mxPoint x="820" y="359" />
              <mxPoint x="820" y="413" />
            </Array>
          </mxGeometry>
        </mxCell>
        <mxCell id="iG1FyST4VSw2gSxUDnyD-32" style="edgeStyle=orthogonalEdgeStyle;rounded=0;orthogonalLoop=1;jettySize=auto;html=1;endArrow=classic;endFill=1;dashed=1;" parent="1" source="mG7DTUGrjtM77zd7hEEh-38" target="iG1FyST4VSw2gSxUDnyD-29" edge="1">
          <mxGeometry relative="1" as="geometry" />
        </mxCell>
        <mxCell id="9lxMoNS6_Zflg6dV7JQC-3" style="edgeStyle=orthogonalEdgeStyle;rounded=0;orthogonalLoop=1;jettySize=auto;html=1;curved=1;" edge="1" parent="1" source="9lxMoNS6_Zflg6dV7JQC-1" target="mG7DTUGrjtM77zd7hEEh-11">
          <mxGeometry relative="1" as="geometry" />
        </mxCell>
        <mxCell id="9lxMoNS6_Zflg6dV7JQC-1" value="BrokerToMongo" style="shape=cube;whiteSpace=wrap;html=1;boundedLbl=1;backgroundOutline=1;darkOpacity=0.05;darkOpacity2=0.1;size=10;fillColor=#f0a30a;strokeColor=#BD7000;fontColor=#000000;" vertex="1" parent="1">
          <mxGeometry x="330" y="212.50164088888891" width="210" height="57.55287037037037" as="geometry" />
        </mxCell>
      </root>
    </mxGraphModel>
  </diagram>
</mxfile>
